<svg width="128" height="128" viewBox="0 0 128 128" fill="none" xmlns="http://www.w3.org/2000/svg">
  <defs>
    <linearGradient id="bg" x1="6" y1="2" x2="122" y2="126" gradientUnits="userSpaceOnUse">
      <stop stop-color="#8B5CF6" />
      <stop offset="0.5" stop-color="#5B8CFF" />
      <stop offset="1" stop-color="#22D3EE" />
    </linearGradient>
    <linearGradient id="gloss" x1="64" y1="0" x2="64" y2="72" gradientUnits="userSpaceOnUse">
      <stop stop-color="#ffffff" stop-opacity="0.30" />
      <stop offset="1" stop-color="#ffffff" stop-opacity="0" />
    </linearGradient>
  </defs>

  <rect x="2" y="2" width="124" height="124" rx="28" fill="url(#bg)" />
  <rect x="2" y="2" width="124" height="124" rx="28" fill="url(#gloss)" />

  <g transform="translate(64 64) scale(1.18) translate(-64 -64)">
    <g stroke="#ffffff" stroke-width="6.5" stroke-linecap="round" stroke-linejoin="round" fill="none">
      <path d="M34 58a30 30 0 0 1 51-21l9 9" />
      <path d="M94 33v13h-13" />
      <path d="M94 70a30 30 0 0 1-51 21l-9-9" />
      <path d="M34 95V82h13" />
      <path d="M64 44v40M55 44h18M55 84h18" />
    </g>
    <circle cx="64" cy="22" r="3" fill="#ffffff" />
    <circle cx="64" cy="106" r="3" fill="#ffffff" fill-opacity="0.8" />
  </g>
</svg>
